<?xml-stylesheet type="text/css" href="observable.css" ?>
<svg viewBox="0,0,975,432" width="975" height="432" xmlns="http://www.w3.org/2000/svg" xmlns:xlink="http://www.w3.org/1999/xlink">
  <g transform="translate(0,402)" fill="none" font-size="10" font-family="sans-serif" text-anchor="middle">
    <g class="tick" opacity="1" transform="translate(40.5,0)"><line stroke="currentColor" y2="6"/>
      <text fill="currentColor" y="9" dy="0.71em">2006</text>
    </g>
    <g class="tick" opacity="1" transform="translate(123.6197112991538,0)"><line stroke="currentColor" y2="6"/>
      <text fill="currentColor" y="9" dy="0.71em">2007</text>
    </g>
    <g class="tick" opacity="1" transform="translate(206.7394225983076,0)"><line stroke="currentColor" y2="6"/>
      <text fill="currentColor" y="9" dy="0.71em">2008</text>
    </g>
    <g class="tick" opacity="1" transform="translate(290.08685913389746,0)"><line stroke="currentColor" y2="6"/>
      <text fill="currentColor" y="9" dy="0.71em">2009</text>
    </g>
    <g class="tick" opacity="1" transform="translate(373.20657043305124,0)"><line stroke="currentColor" y2="6"/>
      <text fill="currentColor" y="9" dy="0.71em">2010</text>
    </g>
    <g class="tick" opacity="1" transform="translate(456.3262817322051,0)"><line stroke="currentColor" y2="6"/>
      <text fill="currentColor" y="9" dy="0.71em">2011</text>
    </g>
    <g class="tick" opacity="1" transform="translate(539.4459930313589,0)"><line stroke="currentColor" y2="6"/>
      <text fill="currentColor" y="9" dy="0.71em">2012</text>
    </g>
    <g class="tick" opacity="1" transform="translate(622.7934295669487,0)"><line stroke="currentColor" y2="6"/>
      <text fill="currentColor" y="9" dy="0.71em">2013</text>
    </g>
    <g class="tick" opacity="1" transform="translate(705.9131408661025,0)"><line stroke="currentColor" y2="6"/>
      <text fill="currentColor" y="9" dy="0.71em">2014</text>
    </g>
    <g class="tick" opacity="1" transform="translate(789.0328521652564,0)"><line stroke="currentColor" y2="6"/>
      <text fill="currentColor" y="9" dy="0.71em">2015</text>
    </g>
    <g class="tick" opacity="1" transform="translate(872.1525634644102,0)"><line stroke="currentColor" y2="6"/>
      <text fill="currentColor" y="9" dy="0.71em">2016</text>
    </g>
    <g class="tick" opacity="1" transform="translate(955.5,0)"><line stroke="currentColor" y2="6"/>
      <text fill="currentColor" y="9" dy="0.71em">2017</text>
    </g>
  </g>
  <g>
    <g transform="translate(40,0)" fill="none" font-size="10" font-family="sans-serif" text-anchor="end">
      <g class="tick" opacity="1" transform="translate(0,402.5)"><line stroke="currentColor" x2="-6"/>
        <text fill="currentColor" x="-9" dy="0.32em">0k</text>
      </g>
      <g class="tick" opacity="1" transform="translate(0,377.03333333333336)"><line stroke="currentColor" x2="-6"/>
        <text fill="currentColor" x="-9" dy="0.32em">2k</text>
      </g>
      <g class="tick" opacity="1" transform="translate(0,351.56666666666666)"><line stroke="currentColor" x2="-6"/>
        <text fill="currentColor" x="-9" dy="0.32em">4k</text>
      </g>
      <g class="tick" opacity="1" transform="translate(0,326.1)"><line stroke="currentColor" x2="-6"/>
        <text fill="currentColor" x="-9" dy="0.32em">6k</text>
      </g>
      <g class="tick" opacity="1" transform="translate(0,300.6333333333333)"><line stroke="currentColor" x2="-6"/>
        <text fill="currentColor" x="-9" dy="0.32em">8k</text>
      </g>
      <g class="tick" opacity="1" transform="translate(0,275.1666666666667)"><line stroke="currentColor" x2="-6"/>
        <text fill="currentColor" x="-9" dy="0.32em">10k</text>
      </g>
      <g class="tick" opacity="1" transform="translate(0,249.7)"><line stroke="currentColor" x2="-6"/>
        <text fill="currentColor" x="-9" dy="0.32em">12k</text>
      </g>
      <g class="tick" opacity="1" transform="translate(0,224.23333333333332)"><line stroke="currentColor" x2="-6"/>
        <text fill="currentColor" x="-9" dy="0.32em">14k</text>
      </g>
      <g class="tick" opacity="1" transform="translate(0,198.76666666666668)"><line stroke="currentColor" x2="-6"/>
        <text fill="currentColor" x="-9" dy="0.32em">16k</text>
      </g>
      <g class="tick" opacity="1" transform="translate(0,173.3)"><line stroke="currentColor" x2="-6"/>
        <text fill="currentColor" x="-9" dy="0.32em">18k</text>
      </g>
      <g class="tick" opacity="1" transform="translate(0,147.83333333333334)"><line stroke="currentColor" x2="-6"/>
        <text fill="currentColor" x="-9" dy="0.32em">20k</text>
      </g>
      <g class="tick" opacity="1" transform="translate(0,122.36666666666667)"><line stroke="currentColor" x2="-6"/>
        <text fill="currentColor" x="-9" dy="0.32em">22k</text>
      </g>
      <g class="tick" opacity="1" transform="translate(0,96.89999999999998)"><line stroke="currentColor" x2="-6"/>
        <text fill="currentColor" x="-9" dy="0.32em">24k</text>
      </g>
      <g class="tick" opacity="1" transform="translate(0,71.43333333333334)"><line stroke="currentColor" x2="-6"/>
        <text fill="currentColor" x="-9" dy="0.32em">26k</text>
      </g>
      <g class="tick" opacity="1" transform="translate(0,45.96666666666664)"><line stroke="currentColor" x2="-6"/>
        <text fill="currentColor" x="-9" dy="0.32em">28k</text>
      </g>
      <g class="tick" opacity="1" transform="translate(0,20.5)"><line stroke="currentColor" x2="-6"/>
        <text fill="currentColor" x="-9" dy="0.32em">30k</text>
        <text fill="currentColor" x="3" dy="0.32em" text-anchor="start" font-weight="bold">Soy deforestation (Ha)</text>
      </g>
    </g>
  </g>
  <clipPath id="O-above-49"><path
    d="M40,43.15232663508823C67.71351648444605,96.77720212867129,95.42703296889209,150.40207762225435,123.1197112991538,148.30875187123584C150.81238962941552,146.21542612021733,178.48422980549284,88.40389912459723,206.2394225983076,103.02621082268092C233.99461539112238,117.64852252076462,261.8331608006746,204.70467291255204,289.58685913389746,258.55737229417446C317.34055746712033,312.41007167579687,345.00940872401407,333.0593200472547,372.70657043305124,340.82516161599693C400.4037321420884,348.5910031847392,428.129204303269,343.4734379507664,455.8262817322051,342.79324932356667C483.5233591611412,342.1130606963669,511.1920418578327,345.87024867594016,538.9459930313589,354.12199084601394C566.699944204885,362.3737330160877,594.539163855246,375.12002937666216,622.2934295669487,379.18984370443553C650.0476952786514,383.2596580322089,677.7170070516958,378.6529903271812,705.4131408661025,377.2962262606385C733.1092746805092,375.93946219409577,760.832230536279,377.8326017660379,788.5328521652564,379.1871914455819C816.2334737942338,380.5417811251259,843.9117611964183,381.357820912272,871.6525634644102,380.6819585180636C899.393365732402,380.0060961238552,927.196682866201,377.8383315482922,955,375.67056697272926L955,0C927.196682866201,0,899.393365732402,0,871.6525634644102,0C843.9117611964183,0,816.2334737942336,0,788.5328521652564,0C760.8322305362791,0,733.1092746805095,0,705.4131408661025,0C677.7170070516954,0,650.0476952786511,0,622.2934295669487,0C594.5391638552463,0,566.6999442048852,0,538.9459930313589,0C511.19204185783246,0,483.5233591611411,0,455.8262817322051,0C428.12920430326903,0,400.40373214208836,0,372.70657043305124,0C345.0094087240141,0,317.3405574671204,0,289.58685913389746,0C261.83316080067453,0,233.99461539112238,0,206.2394225983076,0C178.48422980549284,0,150.81238962941552,0,123.1197112991538,0C95.4270329688921,0,67.71351648444605,0,40,0Z"/></clipPath>
  <clipPath id="O-below-50"><path
    d="M40,43.15232663508823C67.71351648444605,96.77720212867129,95.42703296889209,150.40207762225435,123.1197112991538,148.30875187123584C150.81238962941552,146.21542612021733,178.48422980549284,88.40389912459723,206.2394225983076,103.02621082268092C233.99461539112238,117.64852252076462,261.8331608006746,204.70467291255204,289.58685913389746,258.55737229417446C317.34055746712033,312.41007167579687,345.00940872401407,333.0593200472547,372.70657043305124,340.82516161599693C400.4037321420884,348.5910031847392,428.129204303269,343.4734379507664,455.8262817322051,342.79324932356667C483.5233591611412,342.1130606963669,511.1920418578327,345.87024867594016,538.9459930313589,354.12199084601394C566.699944204885,362.3737330160877,594.539163855246,375.12002937666216,622.2934295669487,379.18984370443553C650.0476952786514,383.2596580322089,677.7170070516958,378.6529903271812,705.4131408661025,377.2962262606385C733.1092746805092,375.93946219409577,760.832230536279,377.8326017660379,788.5328521652564,379.1871914455819C816.2334737942338,380.5417811251259,843.9117611964183,381.357820912272,871.6525634644102,380.6819585180636C899.393365732402,380.0060961238552,927.196682866201,377.8383315482922,955,375.67056697272926L955,432C927.196682866201,432,899.393365732402,432,871.6525634644102,432C843.9117611964183,432,816.2334737942336,432.00000000000006,788.5328521652564,432C760.8322305362791,431.99999999999994,733.1092746805095,432,705.4131408661025,432C677.7170070516954,432,650.0476952786511,432,622.2934295669487,432C594.5391638552463,432,566.6999442048852,432,538.9459930313589,432C511.19204185783246,432,483.5233591611411,432,455.8262817322051,432C428.12920430326903,432,400.40373214208836,432,372.70657043305124,432C345.0094087240141,432,317.3405574671204,432,289.58685913389746,432C261.83316080067453,432,233.99461539112238,432,206.2394225983076,432C178.48422980549284,432,150.81238962941552,432,123.1197112991538,432C95.4270329688921,432,67.71351648444605,432,40,432Z"/></clipPath><path
    clip-path="url(#O-above-49)"
    fill="#820263"
    d="M40,402C67.71351648444605,401.90566496149665,95.42703296889209,401.81132992299325,123.1197112991538,402C150.81238962941552,402.18867007700675,178.48422980549284,402.66034526952365,206.2394225983076,402C233.99461539112238,401.33965473047635,261.8331608006746,399.54728899891205,289.58685913389746,402C317.34055746712033,404.45271100108795,345.00940872401407,411.1504987348283,372.70657043305124,402C400.4037321420884,392.8495012651717,428.129204303269,367.8507160617747,455.8262817322051,348.52176764542634C483.5233591611412,329.192819229078,511.1920418578327,315.5337075997781,538.9459930313589,306.3348322025779C566.699944204885,297.1359568053777,594.539163855246,292.3973176402774,622.2934295669487,303.8225546445524C650.0476952786514,315.2477916488274,677.7170070516958,342.8369048224778,705.4131408661025,334.13749434251145C733.1092746805092,325.4380838625451,760.832230536279,280.4501497289623,788.5328521652564,273.3754086438606C816.2334737942338,266.30066755875896,843.9117611964183,297.1391195221383,871.6525634644102,306.02065419623295C899.393365732402,314.9021888703276,927.196682866201,301.8268062551374,955,288.75142363994723L955,432C927.196682866201,432,899.393365732402,432,871.6525634644102,432C843.9117611964183,432,816.2334737942336,432.00000000000006,788.5328521652564,432C760.8322305362791,431.99999999999994,733.1092746805095,432,705.4131408661025,432C677.7170070516954,432,650.0476952786511,432,622.2934295669487,432C594.5391638552463,432,566.6999442048852,432,538.9459930313589,432C511.19204185783246,432,483.5233591611411,432,455.8262817322051,432C428.12920430326903,432,400.40373214208836,432,372.70657043305124,432C345.0094087240141,432,317.3405574671204,432,289.58685913389746,432C261.83316080067453,432,233.99461539112238,432,206.2394225983076,432C178.48422980549284,432,150.81238962941552,432,123.1197112991538,432C95.4270329688921,432,67.71351648444605,432,40,432Z"/><path
    clip-path="url(#O-below-50)"
    fill="#177E89"
    d="M40,402C67.71351648444605,401.90566496149665,95.42703296889209,401.81132992299325,123.1197112991538,402C150.81238962941552,402.18867007700675,178.48422980549284,402.66034526952365,206.2394225983076,402C233.99461539112238,401.33965473047635,261.8331608006746,399.54728899891205,289.58685913389746,402C317.34055746712033,404.45271100108795,345.00940872401407,411.1504987348283,372.70657043305124,402C400.4037321420884,392.8495012651717,428.129204303269,367.8507160617747,455.8262817322051,348.52176764542634C483.5233591611412,329.192819229078,511.1920418578327,315.5337075997781,538.9459930313589,306.3348322025779C566.699944204885,297.1359568053777,594.539163855246,292.3973176402774,622.2934295669487,303.8225546445524C650.0476952786514,315.2477916488274,677.7170070516958,342.8369048224778,705.4131408661025,334.13749434251145C733.1092746805092,325.4380838625451,760.832230536279,280.4501497289623,788.5328521652564,273.3754086438606C816.2334737942338,266.30066755875896,843.9117611964183,297.1391195221383,871.6525634644102,306.02065419623295C899.393365732402,314.9021888703276,927.196682866201,301.8268062551374,955,288.75142363994723L955,0C927.196682866201,0,899.393365732402,0,871.6525634644102,0C843.9117611964183,0,816.2334737942336,0,788.5328521652564,0C760.8322305362791,0,733.1092746805095,0,705.4131408661025,0C677.7170070516954,0,650.0476952786511,0,622.2934295669487,0C594.5391638552463,0,566.6999442048852,0,538.9459930313589,0C511.19204185783246,0,483.5233591611411,0,455.8262817322051,0C428.12920430326903,0,400.40373214208836,0,372.70657043305124,0C345.0094087240141,0,317.3405574671204,0,289.58685913389746,0C261.83316080067453,0,233.99461539112238,0,206.2394225983076,0C178.48422980549284,0,150.81238962941552,0,123.1197112991538,0C95.4270329688921,0,67.71351648444605,0,40,0Z"/><path
    fill="none"
    stroke="black"
    stroke-width="1.5"
    stroke-linejoin="round"
    stroke-linecap="round"
    d="M40,402C67.71351648444605,401.90566496149665,95.42703296889209,401.81132992299325,123.1197112991538,402C150.81238962941552,402.18867007700675,178.48422980549284,402.66034526952365,206.2394225983076,402C233.99461539112238,401.33965473047635,261.8331608006746,399.54728899891205,289.58685913389746,402C317.34055746712033,404.45271100108795,345.00940872401407,411.1504987348283,372.70657043305124,402C400.4037321420884,392.8495012651717,428.129204303269,367.8507160617747,455.8262817322051,348.52176764542634C483.5233591611412,329.192819229078,511.1920418578327,315.5337075997781,538.9459930313589,306.3348322025779C566.699944204885,297.1359568053777,594.539163855246,292.3973176402774,622.2934295669487,303.8225546445524C650.0476952786514,315.2477916488274,677.7170070516958,342.8369048224778,705.4131408661025,334.13749434251145C733.1092746805092,325.4380838625451,760.832230536279,280.4501497289623,788.5328521652564,273.3754086438606C816.2334737942338,266.30066755875896,843.9117611964183,297.1391195221383,871.6525634644102,306.02065419623295C899.393365732402,314.9021888703276,927.196682866201,301.8268062551374,955,288.75142363994723"/>
  <text class="caption" x="70" y="352" fill="white" text-anchor="start" font-size="16" font-weight="bold">Parent companies combined</text>
  <text class="caption" x="750" y="352" fill="white" text-anchor="start" font-size="16" font-weight="bold">New subsidiary</text>
</svg>
