<svg xmlns="http://www.w3.org/2000/svg" xmlns:xlink="http://www.w3.org/1999/xlink" viewBox="0 0 288.14 188.94"><defs><style>.cls-1,.cls-10,.cls-11,.cls-12,.cls-14,.cls-15,.cls-16,.cls-17,.cls-2,.cls-5,.cls-6{fill:none;}.cls-2{stroke:#27434b;stroke-width:2.39px;}.cls-10,.cls-11,.cls-15,.cls-16,.cls-17,.cls-2,.cls-5,.cls-6,.cls-7{stroke-linecap:round;}.cls-10,.cls-11,.cls-16,.cls-2,.cls-5,.cls-6,.cls-7{stroke-linejoin:round;}.cls-13,.cls-3{fill:#d4676b;}.cls-4,.cls-7{fill:#35444c;}.cls-10,.cls-11,.cls-5,.cls-6,.cls-7{stroke:#35444c;}.cls-5{stroke-width:1.8px;}.cls-6{stroke-width:1.48px;}.cls-8{clip-path:url(#clip-path);}.cls-9{clip-path:url(#clip-path-2);}.cls-10{stroke-width:1.8px;}.cls-11{stroke-width:1.48px;}.cls-12,.cls-14,.cls-15,.cls-16,.cls-17{stroke:#d4676b;}.cls-12{stroke-miterlimit:10;}.cls-12,.cls-15,.cls-16{stroke-width:2.3px;}.cls-13{isolation:isolate;}.cls-14{stroke-linecap:square;stroke-width:2px;}.cls-14,.cls-15,.cls-17{stroke-linejoin:bevel;}.cls-17{stroke-width:1.82px;}</style><clipPath id="clip-path"><path class="cls-1" d="M249.77,17.66a20.57,20.57,0,1,0,20.57,20.57A20.58,20.58,0,0,0,249.77,17.66Zm9.7,16.2c-.15,2.8-1.83,5.89-3.61,8.81a28.47,28.47,0,0,1-5.63,7,.76.76,0,0,1-1,0,36.84,36.84,0,0,1-6-7.86c-1.25-2.19-3.15-5.51-3.15-8.3,0-5.32,5.23-9.29,9.9-9.29a9.92,9.92,0,0,1,7,3.21A8.61,8.61,0,0,1,259.47,33.86Z"/></clipPath><clipPath id="clip-path-2"><ellipse class="cls-1" cx="249.87" cy="56.67" rx="23.26" ry="10.94"/></clipPath></defs><title>Asset 1</title><g id="Layer_2" data-name="Layer 2"><g id="supply_chain" data-name="supply chain"><polyline class="cls-2" points="199.04 153.76 207.78 162.5 225.01 145.15"/><path class="cls-3" d="M211.64,119.11a34.71,34.71,0,1,0,34.71,34.71A34.73,34.73,0,0,0,211.64,119.11Zm0,67a32.31,32.31,0,1,1,32.31-32.31A32.33,32.33,0,0,1,211.64,186.14Z"/><path id="Combined-Shape" class="cls-4" d="M38.68,14.24a24,24,0,1,0,24,24A24,24,0,0,0,38.68,14.24Zm0,46.36A22.35,22.35,0,1,1,61,38.25,22.37,22.37,0,0,1,38.68,60.6ZM35.19,40.8a.52.52,0,0,0-.68-.31.49.49,0,0,0-.31.68,2.45,2.45,0,0,1,.16.89.52.52,0,0,0,1,0A3.17,3.17,0,0,0,35.19,40.8Zm-3.62-2.67h-.05a.52.52,0,0,0,0,1h.05a4,4,0,0,1,.79.1.47.47,0,0,0,.63-.37c.05-.31-.05-.58-.37-.63A3.38,3.38,0,0,0,31.58,38.13Zm-3.72,2.78a.51.51,0,0,0,1,.26,3.61,3.61,0,0,1,.37-.79.53.53,0,1,0-.89-.58A5.35,5.35,0,0,0,27.86,40.91Zm1.57,4.3a.53.53,0,0,0,.58-.89,2.23,2.23,0,0,1-.63-.58.52.52,0,0,0-.84.63A4.47,4.47,0,0,0,29.43,45.2ZM34,45a.52.52,0,1,0-.68-.79,1.89,1.89,0,0,1-.79.42.53.53,0,1,0,.37,1A5.5,5.5,0,0,0,34,45Zm-2.43-1.41a1.69,1.69,0,1,0-1.69-1.69A1.74,1.74,0,0,0,31.56,43.58Z"/><path class="cls-4" d="M57.39,41.89c0-.08.41-.91.5-1.24A11.57,11.57,0,0,0,58.79,36c0-.5-.17-.66-.83-1.32a5.41,5.41,0,0,0-.66-.58,5,5,0,0,1-.66-.66c-.08-.08-.17-.17-.25-.17a11.81,11.81,0,0,0-1.16-1.08,1.45,1.45,0,0,1-.33-.41H55a1.84,1.84,0,0,0,.41.25,1.14,1.14,0,0,1,.33.25,1.66,1.66,0,0,0,1.08.33,3.43,3.43,0,0,0,1.66-.5,20.21,20.21,0,0,0-2.4-5.22c-.25.33-.5.5-.5.83-.17.83.25,1.24,1.32,2.15,0,.08,0,.08.08.17.66.5.83.58.66.66a2.51,2.51,0,0,1-.91.25l-.17-.08c-.08,0-.08-.08-.25-.17a2.38,2.38,0,0,0-1.24-.58,1.56,1.56,0,0,0-1.9,1.66c0,.66.5,1.24,2,2.65a.64.64,0,0,0,.25.17c.17.17.66.58.66.66l.58.58c.31.15.46.3.49.39a9.67,9.67,0,0,1-.82,3.91,9.64,9.64,0,0,1-.5,1.24c-.17.5-.25.83-.33,1.16-.08.83.08,1.24.58,1.57V45c-.25,2.73-2.9,6.13-5.3,7.87a1.6,1.6,0,0,1-.91.41,4.23,4.23,0,0,1,.08-.75c.15-1.08.23-1.52-.17-1.91a.3.3,0,0,0-.08-.25v-.91A5.17,5.17,0,0,1,49.85,48a8.63,8.63,0,0,0,.83-3.81c0-1.74-4.14-5.8-5.88-5.8a2.64,2.64,0,0,0-1.16.25,1.75,1.75,0,0,0-.58.25,5.53,5.53,0,0,1-2.24.33c-1.41,0-1.9-1.49-1.9-3.64A2.68,2.68,0,0,1,39.67,34,2.33,2.33,0,0,0,40,32v-.25c0-.19-.06-.32-.07-.42a1,1,0,0,1,.23-.16c.33-.17.91-.41,1.49-.66a11.84,11.84,0,0,1,2.82-.75h4.22c1.16,0,4.06-1.32,4.06-2.48S51.26,25,50.18,25a2.6,2.6,0,0,0-1.49.5,1.4,1.4,0,0,1-.41.17.82.82,0,0,1-.5.17,3.35,3.35,0,0,1-.91-.5c-.08,0-.08,0-.08-.08-1.08-.66-1.32-.83-1.9-.83a5.07,5.07,0,0,0-3.23,2.24,3.35,3.35,0,0,1-2,.57v-.16a.63.63,0,0,1,.08-.33c0-.21.05-.33.07-.41h0a3.24,3.24,0,0,1,.75-.33,2.12,2.12,0,0,0,.41-.17,1.4,1.4,0,0,1,.41-.17,1.91,1.91,0,0,0,.75-.5c.33-.33.33-.58.33-1.32v-.25a2.93,2.93,0,0,1,.08-.5,1.57,1.57,0,0,1,.5-.33,2.44,2.44,0,0,0,1.24-1.16,1.2,1.2,0,0,0-.58-1.49,10.84,10.84,0,0,0-1.08-.58l-.3-.13a4.24,4.24,0,0,1,.54-.28,1.34,1.34,0,0,0,1.16-.75,6,6,0,0,0-2.32-.58c-.17.08-.25.17-.41.25-.91.66-1.41,1.32-.66,2.15a4.59,4.59,0,0,0,.66.5c.17.08.33.17.75.33a3.79,3.79,0,0,1,.47.22l-.22.11a6.08,6.08,0,0,0-1,.75,2,2,0,0,0-.41,1.41v.6l-.08.07c-.08.08-.25.08-.33.17a2.12,2.12,0,0,1-.41.17c-.41.17-.66.33-.91.41-.58.33-.91.66-.91,1.16a2.32,2.32,0,0,1-.08.41c0,.17-.08.25-.08.41-.08,1.16.25,2,1.49,2,1.57,0,3.06-.41,3.64-1.41a4.52,4.52,0,0,1,1.82-1.41,5.31,5.31,0,0,1,1,.58c.08,0,.08,0,.08.08.91.58,1.32.83,1.82.83A2.55,2.55,0,0,0,49,27.32a2.76,2.76,0,0,1,.5-.25,3,3,0,0,1,.75-.33.85.85,0,0,1,.58.33l.25.25a3.62,3.62,0,0,1-.83.5,7.48,7.48,0,0,1-1.49.5H44.39c-1.82.17-6,1.66-6,3a5.65,5.65,0,0,0,.08,1v.25a4.23,4.23,0,0,1,.08.75,3.66,3.66,0,0,0-1.16,2.65,8,8,0,0,0,.41,2.82,3.26,3.26,0,0,0,3.15,2.48,8.42,8.42,0,0,0,2.81-.41,1.75,1.75,0,0,0,.58-.25,1.62,1.62,0,0,1,.58-.08,7.33,7.33,0,0,1,2.4,1.74,6.15,6.15,0,0,1,1.82,2.4,7,7,0,0,1-.66,3.06c-.58.5-.58,3.31.08,4l-.08-.08a1.62,1.62,0,0,1-.08.58,2.54,2.54,0,0,0-.08,1.32c.17,1.49,1.9,2,3.56.75,2.65-2.07,5.55-5.71,5.8-9,.16-1.26,0-1.91-.5-2.33v-.15A2.7,2.7,0,0,1,57.39,41.89ZM39.75,26.36a.11.11,0,0,1-.08.05ZM57.06,42.8,57,42.72l.08.08Z"/><path class="cls-4" d="M24.85,49.26a1.14,1.14,0,0,1-.25-.33c-.75-1-1-1.41-1-1.66a2.84,2.84,0,0,0-.33-1.32,8.06,8.06,0,0,0-.41-.91c-.5-1-.58-1-.58-1a3.43,3.43,0,0,0-.08-.83c0-.17-.25-.83-.25-.91a3.52,3.52,0,0,1-.17-.91,3.71,3.71,0,0,1-.08-.91,1.62,1.62,0,0,1,.08-.58,5.27,5.27,0,0,0,.17-.58c.5-1.49.58-2.15-.17-3a11,11,0,0,0-.91-.83c-.91-.83-1.24-1.16-1.24-1.57a.78.78,0,0,0-.83-.83h-.25a16.88,16.88,0,0,0-.41,1.9,6.78,6.78,0,0,0,1.57,1.74,3.1,3.1,0,0,1,.75.75c.17.17.17.41-.17,1.32a2.8,2.8,0,0,1-.25.66,4.16,4.16,0,0,0-.17,1A7.35,7.35,0,0,0,20,41.72c.08.33.17.58.25,1,.33,1.49.33,1.16.33,1.32A1.76,1.76,0,0,0,21,45a5.27,5.27,0,0,0,.5.83,5.23,5.23,0,0,1,.33.75,1.51,1.51,0,0,1,.17.75c0,.83.33,1.32,1.32,2.65a1.14,1.14,0,0,0,.25.33,5.84,5.84,0,0,1,.75,1.24,1.61,1.61,0,0,1,.08.66,4,4,0,0,1-.08,1,15.24,15.24,0,0,0,1.49,1.24,2.93,2.93,0,0,0,.08-.5,14.78,14.78,0,0,0,.17-1.9,4.16,4.16,0,0,0-.17-1A5,5,0,0,0,24.85,49.26Z"/><path class="cls-4" d="M37.93,18.38a2.72,2.72,0,0,1,.5-.25,4.62,4.62,0,0,0,.66-.41,7.27,7.27,0,0,0-3.15,0l-.08.08s-.33.5-.41.66-.33-.17-.58-.58a19.21,19.21,0,0,0-6.21,2.24v.25c.17.58.5.66,1,.66a2.15,2.15,0,0,1,.83.33c.08.08-.25.33-.5,1-.08.17-.08.25-.17.41a.26.26,0,0,1-.25.25c-.25,0-.58-.08-.66-.08a1,1,0,0,0-1.32.25c-.08.08-.25.17-.33.33l-.33.33a2.64,2.64,0,0,1-.58.5h-1a3.08,3.08,0,0,0-1.82,1.08,4.74,4.74,0,0,0-.58.66,9.37,9.37,0,0,1-.83,1.08c-.17.17-.25.08-.41-.17-.08-.08-.08-.17-.17-.25a7.34,7.34,0,0,0-.91,1.57l.5.5a1.14,1.14,0,0,0,1,.25,2,2,0,0,0,1.24-.83c.17-.17.75-1,.83-1.08a1.41,1.41,0,0,1,.5-.5c.5-.5.66-.58.75-.58h.83a1.4,1.4,0,0,0,.83-.25,3.61,3.61,0,0,0,.91-.75l.33-.33c.08-.08.17-.17.25-.17-.08,0,2.07.91,2.73-.83a1.88,1.88,0,0,0,.08-.33.75.75,0,0,0,.08-.41,2.32,2.32,0,0,1,.41-.83c.66-.66.17-1.49-.58-2.07-.08-.08.08-.17.17-.17l.33-.17a2.79,2.79,0,0,0,1.41-.5h.08c.41-.17.25,1.9,1.57,1.9A1.79,1.79,0,0,0,36,20.7a4.7,4.7,0,0,0,.91-1.16c.08-.17.41-.66.41-.66A1.79,1.79,0,0,1,37.93,18.38Z"/><path class="cls-4" d="M30.37,37.8a2.19,2.19,0,0,0-1.18-.63A7,7,0,0,0,27.92,37l-.56,0a1.73,1.73,0,0,1-1.08-.39h0a8.71,8.71,0,0,0-1.35-1.26,3.77,3.77,0,0,0-2.48-.66,1.67,1.67,0,0,1-.33-1,7.73,7.73,0,0,1,.54-.57,1.45,1.45,0,0,1,.46.24,4.06,4.06,0,0,0,.83.33,1.41,1.41,0,0,0,.58.08.9.9,0,0,0,.83-.91c0-.91-1.82-2.32-2.81-2.32H20.91a.18.18,0,0,1,0-.08.9.9,0,0,1-.08-.41.9.9,0,0,0-.66-.66A14.57,14.57,0,0,0,19.38,31a1.4,1.4,0,0,0,1.32,1.08h.75a2.87,2.87,0,0,0-.83,1.57c0,1.24.66,2.65,2,2.65a2.17,2.17,0,0,1,1.57.41,8.85,8.85,0,0,1,1,.95l.3.28a3.49,3.49,0,0,0,1.76.61l.63,0,.46,0A3.37,3.37,0,0,1,30.37,37.8Z"/><path class="cls-4" d="M35,46c0-.19-1.42.44-1.41.49a3.34,3.34,0,0,0-.66.87,4.27,4.27,0,0,0-.52,1.74h0v.15h0a1,1,0,0,0-.08.38,1.09,1.09,0,0,1-.53.75,9.21,9.21,0,0,0-2.64,3l-.53,1.06a6.24,6.24,0,0,0-.53,1,4.59,4.59,0,0,0,1.36.68c.15-.3.38-.68.53-1L30.49,54a8.54,8.54,0,0,1,2.19-2.49A2.33,2.33,0,0,0,33.73,50a11.41,11.41,0,0,0,.21-1.3A2.91,2.91,0,0,1,34.2,48a1.91,1.91,0,0,1,.4-.53A1.38,1.38,0,0,0,35,46Z"/><path class="cls-4" d="M143.69,13.83A24,24,0,1,0,163,52l-.07,0-2.06.1A22.33,22.33,0,1,1,165.64,42l1.76-.5a23.7,23.7,0,0,0,.29-3.66A24,24,0,0,0,143.69,13.83Z"/><path class="cls-4" d="M160.65,31.63a.74.74,0,0,0-.73-.64h-7.68a.74.74,0,0,0-.57.26L150,32.89a4.93,4.93,0,0,1,.14,1.91.72.72,0,0,0,.37-.22l2.05-2.11h6.67c.13,1.91.23,7.6-2.8,10.91a.74.74,0,0,0,1.09,1C161.66,39.86,160.69,32,160.65,31.63Z"/><path class="cls-4" d="M141.52,35.26a.74.74,0,0,0-.29-.06h-1.52V28.06a.74.74,0,0,0-.74-.74h-3.21V22.05a.74.74,0,0,0-1.48,0v5.27h-3.21a.74.74,0,0,0-.74.74V35.2h-1.82a.74.74,0,0,0-.74.74v7.63a.74.74,0,1,0,1.48,0V36.67h2.56V35.17h0V28.8h6.43v6.37h0v1.51h2.9Z"/><path class="cls-5" d="M126.75,44.19c3.41,0,3.41,1.39,6.82,1.39s3.41-1.39,6.82-1.39,3.41,1.39,6.82,1.39,3.41-1.39,6.83-1.39,3.42,1.39,6.83,1.39,3.42-1.39,6.83-1.39"/><path class="cls-4" d="M126.79,49.33c2.92.31,5.23,1.77,8.28,1.22,2.75-.5,4.87-1.23,7.77-.61a16.4,16.4,0,0,0,3.73.75,15.12,15.12,0,0,0,3.19-.5,15.32,15.32,0,0,1,7.44.11c3.72.87,6-.71,9.58-1,1.26-.09,1.64-1.8.16-1.7a23.17,23.17,0,0,0-3.49.67,13.58,13.58,0,0,1-7-.27c-3.31-.78-5.54.37-8.76.66s-5.94-1.5-9.21-.91c-2,.36-3.94,1.41-6.05,1.13-1.69-.22-3.18-1.08-4.91-1.26-1.13-.12-2.19,1.52-.73,1.67Z"/><path class="cls-6" d="M127.15,48.49"/><rect class="cls-7" x="143.21" y="32.98" width="4.88" height="3.04"/><rect class="cls-7" x="144.34" y="27.74" width="4.88" height="3.04"/><rect class="cls-7" x="143.21" y="22.51" width="4.88" height="3.04"/><polygon class="cls-4" points="157.26 44.33 150.51 45.18 145.66 45.46 139.78 44.05 133.53 45.47 128.65 44.05 128.37 41.62 158.44 41.62 157.26 44.33"/><g class="cls-8"><g class="cls-9"><path class="cls-4" d="M239.66,63.76c-1.79,0-3.06-4.51-3.2-5a.18.18,0,0,1,.05-.18c.07-.06,6.81-6.43,13.36-8.4l.39,0a.23.23,0,0,1,.23.17c0,.1-.11.2-.2.21s-6,4-8.47,10.64C241.16,62.9,240.46,63.76,239.66,63.76Z"/><path class="cls-4" d="M250.26,50.31c.1,0,0,0,0,0a24.56,24.56,0,0,0-8.61,10.75c-.68,1.83-1.36,2.5-2,2.5-1.7,0-3-4.89-3-4.89s6.7-6.38,13.29-8.36l.33,0m0-.37-.36,0h-.08c-6.6,2-13.16,8.18-13.43,8.44a.37.37,0,0,0-.1.36c.23.86,1.49,5.16,3.38,5.16.88,0,1.65-.9,2.33-2.74a24.34,24.34,0,0,1,8.42-10.54.37.37,0,0,0,.26-.39.41.41,0,0,0-.41-.34Z"/><path class="cls-4" d="M249.81,50.49a.71.71,0,0,1-.34-.15l-.22-.12a98.52,98.52,0,0,0-11.63-1.93c-.74,0-1.49-.07-2.23-.07a37.2,37.2,0,0,0-3.76.19h0a.18.18,0,0,1-.17-.13.19.19,0,0,1,.08-.22,13.12,13.12,0,0,1,6.59-1.72l.82,0a17.62,17.62,0,0,1,4.41.89c.86.28,6.52,2.46,6.66,2.83a.32.32,0,0,1,0,.31A.25.25,0,0,1,249.81,50.49Z"/><path class="cls-4" d="M238.11,46.54l.8,0a17.51,17.51,0,0,1,4.36.88,56.17,56.17,0,0,1,6.55,2.72c0,.11,0,.15,0,.15s-.32-.19-.49-.26a95.45,95.45,0,0,0-11.69-1.95q-1.12-.07-2.24-.07a37.14,37.14,0,0,0-3.78.19,12.88,12.88,0,0,1,6.49-1.69m0-.37a13.3,13.3,0,0,0-6.69,1.75.37.37,0,0,0,.19.69h0a36.89,36.89,0,0,1,3.74-.19c.74,0,1.48,0,2.22.07a98.13,98.13,0,0,1,11.58,1.92l.18.11a.84.84,0,0,0,.44.18.43.43,0,0,0,.33-.17.5.5,0,0,0,0-.48c-.21-.54-6.71-2.91-6.78-2.93a17.75,17.75,0,0,0-4.45-.9l-.83,0Z"/><path class="cls-4" d="M264.29,53.06l-.08,0c-3.23-1.67-8.5-2.2-13.59-2.72h-.05c-.16,0-.33,0-.36-.17s0-.2.16-.26l0,0a.18.18,0,0,1,.12-.21,29.12,29.12,0,0,1,10-1.57,61,61,0,0,1,6.83.44.19.19,0,0,1,.13.29L264.44,53A.18.18,0,0,1,264.29,53.06Z"/><path class="cls-4" d="M260.43,48.25a61.33,61.33,0,0,1,6.81.44l-2.95,4.19c-3.17-1.64-8.19-2.18-13.65-2.74h-.07c-.67,0,.78-.33,0-.33a29,29,0,0,1,9.9-1.56m0-.37a29.3,29.3,0,0,0-10,1.58,1.52,1.52,0,0,0-.38.73c.07.32.41.32.54.32h.08c5,.51,10.28,1,13.47,2.7a.37.37,0,0,0,.47-.12l2.95-4.19a.37.37,0,0,0-.26-.58,61.12,61.12,0,0,0-6.85-.44Z"/></g></g><circle class="cls-4" cx="249.87" cy="33.24" r="4.26"/><path class="cls-10" d="M245.36,45.34c-7.65,1.11-15,4-17.63,5.62"/><path class="cls-10" d="M266.53,48.52a35.15,35.15,0,0,0-12.36-3.26"/><path class="cls-4" d="M249.77,14.17a24,24,0,0,0-21.92,33.7l1.46-.78a22.51,22.51,0,1,1,2.9,4.82l-1.48.79a24,24,0,1,0,19-38.52Z"/><path class="cls-11" d="M249.72,50a39.19,39.19,0,0,1-6.37-8.36C242,39.32,240,35.85,240,33c0-5,5-9.27,9.93-9.27s9.84,4.47,9.51,9.6c-.17,3.06-2.23,6.62-3.81,9.18A30.26,30.26,0,0,1,249.72,50Z"/><circle class="cls-12" cx="38.39" cy="38.39" r="37.24"/><circle class="cls-12" cx="144" cy="38.39" r="37.24"/><circle class="cls-12" cx="249.75" cy="38.39" r="37.24"/><path class="cls-4" d="M119.71,165.69h-4a3.42,3.42,0,0,1-2.2-.73,5.52,5.52,0,0,1-.86-.86l-8-9.42a6.93,6.93,0,0,0-1.35-1.22c.12-.12.37-.24.49-.37a1.21,1.21,0,1,0-1.59-1.84,4.28,4.28,0,0,1-2.69,1H96a4.19,4.19,0,0,1-1.08-.14l-2.36,1.71a6.27,6.27,0,0,0,3.32,1h3.55a4,4,0,0,1,2.32.73,2.65,2.65,0,0,1,.86.73l8,9.42a16.23,16.23,0,0,0,1.35,1.22,6.29,6.29,0,0,0,3.67,1.22h4.16a1.22,1.22,0,0,0,0-2.45Z"/><path class="cls-4" d="M60.12,150.76a6.2,6.2,0,0,1-.86.73,4,4,0,0,1-2.32.73H43.84a1.22,1.22,0,1,0,0,2.45h13.1a4,4,0,0,1,2.69,1,1.21,1.21,0,0,0,1.59-1.84c-.12-.12-.37-.24-.49-.37a7.13,7.13,0,0,0,1.35-1.22l5.57-6.87L66,143.68C63.36,146.84,60.12,150.76,60.12,150.76Z"/><path class="cls-4" d="M82.75,139.26a1.39,1.39,0,0,0-1-.37H76.29l0,2.45h5.15l3.56,3.8,1.84-1.59Z"/><path class="cls-4" d="M67.71,161.41a1.18,1.18,0,0,1-.12,1.71,1.3,1.3,0,0,1-1.71-.12l-2.33-2.81a1.18,1.18,0,0,1,.12-1.71,1.3,1.3,0,0,1,1.71.12Z"/><path class="cls-4" d="M73,165.69h1.71a1.22,1.22,0,0,1,0,2.45H73a7.91,7.91,0,0,1-2.45-.49,1.21,1.21,0,0,1,1-2.2A6.14,6.14,0,0,0,73,165.69Z"/><path class="cls-4" d="M108.33,143.91a1.21,1.21,0,1,1,1.84,1.59l-2.33,2.81a1.21,1.21,0,1,1-1.84-1.59Z"/><path class="cls-4" d="M115.43,138.77h1.71a1.22,1.22,0,0,1,0,2.45h-1.71a3.26,3.26,0,0,0-1.47.37,1.21,1.21,0,0,1-1-2.2A5.57,5.57,0,0,1,115.43,138.77Z"/><path class="cls-4" d="M88.75,130.45A1.21,1.21,0,1,1,90.58,132l-2.33,2.81a1.21,1.21,0,1,1-1.84-1.59Z"/><path class="cls-4" d="M95.85,121.31h1.71a1.22,1.22,0,0,1,0,2.45H95.85a3.26,3.26,0,0,0-1.47.37,1.21,1.21,0,0,1-1-2.2A5.57,5.57,0,0,1,95.85,121.31Z"/><path class="cls-3" d="M109.43,167.77l-1.84-2.08-.24.61a33,33,0,1,1,2.69-13c0,1.22-.12,2.45-.24,3.67l2.08,2.57a9.49,9.49,0,0,1,.12-1.1,33.38,33.38,0,0,0,.37-5,35.26,35.26,0,1,0-2.94,14.32Z"/><path class="cls-13" d="M68.16,143A3.8,3.8,0,1,0,67,140.29,3.67,3.67,0,0,0,68.16,143Zm2.18-4.73h1v2.55h-1Zm0,3.05h1v1h-1Z"/><path class="cls-13" d="M86.91,151.48a3.8,3.8,0,1,0-1.12-2.69A3.67,3.67,0,0,0,86.91,151.48Zm2.18-4.73h1v2.55h-1Zm0,3.05h1v1h-1Z"/><path class="cls-14" d="M160.33,92.07"/><polyline class="cls-15" points="135.34 98.17 144.1 107.2 152.66 98.38"/><line class="cls-16" x1="172.5" y1="62.3" x2="211.29" y2="32.35"/><polyline class="cls-15" points="210.71 37.65 211.65 31.79 205.87 32.13"/><polyline class="cls-17" points="172.56 156.84 177.23 153.18 172.56 149.51"/><line class="cls-16" x1="67.2" y1="62.3" x2="105.99" y2="32.35"/><polyline class="cls-15" points="105.41 37.65 106.35 31.79 100.57 32.13"/></g></g></svg>